<?xml version="1.0" encoding="utf-8"?>
<!-- Generator: Adobe Illustrator 27.5.0, SVG Export Plug-In . SVG Version: 6.00 Build 0)  -->
<svg version="1.1" id="Layer_1" xmlns="http://www.w3.org/2000/svg" xmlns:xlink="http://www.w3.org/1999/xlink" x="0px" y="0px"
	 viewBox="0 0 5000 2916" style="enable-background:new 0 0 5000 2916;" xml:space="preserve">
<g>
	<rect style="fill-rule:evenodd;clip-rule:evenodd;fill:#FFFFFF;" width="5000" height="2916"/>
	<polygon style="fill-rule:evenodd;clip-rule:evenodd;fill:#E6E6E6;" points="1038.577,2916 0,1877.423 0,2477.424 438.577,2916 	
		"/>
	<polygon style="fill-rule:evenodd;clip-rule:evenodd;fill:#CCCCCC;" points="0,1877.423 1038.577,2916 1638.577,2916 0,1277.423 	
		"/>
	<polygon style="fill-rule:evenodd;clip-rule:evenodd;fill:#B3B3B3;" points="0,1277.423 1638.577,2916 2238.577,2916 0,677.422 	
		"/>
	<polygon style="fill-rule:evenodd;clip-rule:evenodd;fill:#999999;" points="0,677.422 2238.577,2916 2838.577,2916 0,77.421 	"/>
	<polygon style="fill-rule:evenodd;clip-rule:evenodd;" points="438.577,2916 0,2477.424 0,2538.679 377.32,2916 	"/>
	<polygon style="fill-rule:evenodd;clip-rule:evenodd;" points="0,1947.425 968.575,2916 1038.577,2916 0,1877.423 	"/>
	<polygon style="fill-rule:evenodd;clip-rule:evenodd;" points="0,1334.924 1581.075,2916 1638.577,2916 0,1277.423 	"/>
	<polygon style="fill-rule:evenodd;clip-rule:evenodd;" points="0,722.423 2193.575,2916 2238.577,2916 0,677.422 	"/>
</g>
</svg>
