<?xml version="1.0" encoding="utf-8"?>
<!-- Generator: Adobe Illustrator 27.5.0, SVG Export Plug-In . SVG Version: 6.00 Build 0)  -->
<svg version="1.1" id="Layer_1" xmlns:xodm="http://www.corel.com/coreldraw/odm/2003"
	 xmlns="http://www.w3.org/2000/svg" xmlns:xlink="http://www.w3.org/1999/xlink" x="0px" y="0px" viewBox="0 0 6000 9000"
	 style="enable-background:new 0 0 6000 9000;" xml:space="preserve">
<g id="Layer_x5F_1">
	<g id="_2196832073632">
		<rect width="6000" height="9000"/>
		<polygon style="fill:#E6E6E6;" points="1608.82,9000 0,9000 0,8343.56 968.99,7837.41 178.94,7548.17 0,7548.17 0,7482.65 
			0,5219.32 0,4358.03 2660.79,2968.16 1691.8,2613.41 0,3448.61 0,1185.28 1691.8,350.07 4133.98,1244.19 4133.98,3507.52 
			4133.98,3685.88 748.25,5493.27 2442.18,6113.43 2442.18,8376.77 2442.18,8555.13 		"/>
		<path style="fill:#E6E6E6;" d="M3834.84,9000l-83.22-199.91L6000,7625.65V9000H3834.84z M6000,6737.33L3398.23,8021.76V5758.43
			L6000,4473.99V6737.33z"/>
	</g>
</g>
</svg>
