<?xml version="1.0" encoding="utf-8"?>
<!-- Generator: Adobe Illustrator 27.5.0, SVG Export Plug-In . SVG Version: 6.00 Build 0)  -->
<svg version="1.1" id="Background" xmlns="http://www.w3.org/2000/svg" xmlns:xlink="http://www.w3.org/1999/xlink" x="0px" y="0px"
	 viewBox="0 0 1200 1200" style="enable-background:new 0 0 1200 1200;" xml:space="preserve">
<g>
	<defs>
		<rect id="SVGID_1_" width="1200" height="1200"/>
	</defs>

	<g style="clip-path:url(#SVGID_00000005241122647739311640000016127273886245542299_);" shape-rendering="crispEdges">
		<polygon style="fill:#BAA2CE;" points="-62.618,39.015 -85.079,0.111 -62.618,-38.794 -17.695,-38.794 4.767,0.111 
			-17.695,39.015 		"/>
		<polygon style="fill:#BBA3CE;" points="4.767,77.919 -17.695,39.015 4.767,0.111 49.69,0.111 72.152,39.015 49.69,77.919 		"/>
		<polygon style="fill:#BBA3CE;" points="72.152,39.015 49.69,0.111 72.152,-38.794 117.075,-38.794 139.537,0.111 117.075,39.015 
					"/>
		<polygon style="fill:#BBA3CE;" points="139.537,77.919 117.075,39.015 139.537,0.111 184.46,0.111 206.921,39.015 184.46,77.919 
					"/>
		<polygon style="fill:#BBA4CE;" points="206.921,39.015 184.46,0.111 206.921,-38.794 251.845,-38.794 274.307,0.111 
			251.845,39.015 		"/>
		<polygon style="fill:#BCA6D0;" points="274.307,77.919 251.845,39.015 274.307,0.111 319.229,0.111 341.692,39.015 
			319.229,77.919 		"/>
		<polygon style="fill:#BDA8D1;" points="341.692,39.015 319.229,0.111 341.692,-38.794 386.614,-38.794 409.076,0.111 
			386.614,39.015 		"/>
		<polygon style="fill:#C0ACD4;" points="409.076,77.919 386.614,39.015 409.076,0.111 453.999,0.111 476.461,39.015 
			453.999,77.919 		"/>
		<polygon style="fill:#C3B0D5;" points="476.461,39.015 453.999,0.111 476.461,-38.794 521.385,-38.794 543.846,0.111 
			521.385,39.015 		"/>
		<polygon style="fill:#C6B4D8;" points="543.846,77.919 521.385,39.015 543.846,0.111 588.769,0.111 611.231,39.015 
			588.769,77.919 		"/>
		<polygon style="fill:#C8B5D8;" points="611.231,39.015 588.769,0.111 611.231,-38.794 656.154,-38.794 678.615,0.111 
			656.154,39.015 		"/>
		<polygon style="fill:#C9B5D8;" points="678.615,77.919 656.154,39.015 678.615,0.111 723.539,0.111 746,39.015 723.539,77.919 		
			"/>
		<polygon style="fill:#CCB5D8;" points="746,39.015 723.539,0.111 746,-38.794 790.924,-38.794 813.386,0.111 790.924,39.015 		"/>
		<polygon style="fill:#CFB9DA;" points="813.386,77.919 790.924,39.015 813.386,0.111 858.309,0.111 880.769,39.015 
			858.309,77.919 		"/>
		<polygon style="fill:#D4BEDC;" points="880.769,39.015 858.309,0.111 880.769,-38.794 925.693,-38.794 948.154,0.111 
			925.693,39.015 		"/>
		<polygon style="fill:#D6BEDC;" points="948.154,77.919 925.693,39.015 948.154,0.111 993.078,0.111 1015.54,39.015 
			993.078,77.919 		"/>
		<polygon style="fill:#D7BCDA;" points="1015.54,39.015 993.078,0.111 1015.54,-38.794 1060.464,-38.794 1082.925,0.111 
			1060.464,39.015 		"/>
		<polygon style="fill:#D9BBDA;" points="1082.925,77.919 1060.464,39.015 1082.925,0.111 1127.848,0.111 1150.311,39.015 
			1127.848,77.919 		"/>
		<polygon style="fill:#DCBFDB;" points="1150.311,39.015 1127.848,0.111 1150.311,-38.794 1195.232,-38.794 1217.694,0.111 
			1195.232,39.015 		"/>
		<polygon style="fill:#DCBEDC;" points="1217.694,77.919 1195.232,39.015 1217.694,0.111 1262.618,0.111 1285.079,39.015 
			1262.618,77.919 		"/>
		<polygon style="fill:#BBA3CE;" points="-62.618,116.823 -85.079,77.919 -62.618,39.015 -17.695,39.015 4.767,77.919 
			-17.695,116.823 		"/>
		<polygon style="fill:#BCA5CF;" points="4.767,155.727 -17.695,116.823 4.767,77.919 49.69,77.919 72.152,116.823 49.69,155.727 		
			"/>
		<polygon style="fill:#BCA4CF;" points="72.152,116.823 49.69,77.919 72.152,39.015 117.075,39.015 139.537,77.919 
			117.075,116.823 		"/>
		<polygon style="fill:#BCA5CF;" points="139.537,155.727 117.075,116.823 139.537,77.919 184.46,77.919 206.921,116.823 
			184.46,155.727 		"/>
		<polygon style="fill:#BCA5CF;" points="206.921,116.823 184.46,77.919 206.921,39.015 251.845,39.015 274.307,77.919 
			251.845,116.823 		"/>
		<polygon style="fill:#BDA8D1;" points="274.307,155.727 251.845,116.823 274.307,77.919 319.229,77.919 341.692,116.823 
			319.229,155.727 		"/>
		<polygon style="fill:#BEA9D1;" points="341.692,116.823 319.229,77.919 341.692,39.015 386.614,39.015 409.076,77.919 
			386.614,116.823 		"/>
		<polygon style="fill:#C1AED4;" points="409.076,155.727 386.614,116.823 409.076,77.919 453.999,77.919 476.461,116.823 
			453.999,155.727 		"/>
		<polygon style="fill:#C3B1D6;" points="476.461,116.823 453.999,77.919 476.461,39.015 521.385,39.015 543.846,77.919 
			521.385,116.823 		"/>
		<polygon style="fill:#C7B5D8;" points="543.846,155.727 521.385,116.823 543.846,77.919 588.769,77.919 611.231,116.823 
			588.769,155.727 		"/>
		<polygon style="fill:#C8B6D9;" points="611.231,116.823 588.769,77.919 611.231,39.015 656.154,39.015 678.615,77.919 
			656.154,116.823 		"/>
		<polygon style="fill:#CAB6D8;" points="678.615,155.727 656.154,116.823 678.615,77.919 723.539,77.919 746,116.823 
			723.539,155.727 		"/>
		<polygon style="fill:#CCB6D8;" points="746,116.823 723.539,77.919 746,39.015 790.924,39.015 813.386,77.919 790.924,116.823 		
			"/>
		<polygon style="fill:#D0BADA;" points="813.386,155.727 790.924,116.823 813.386,77.919 858.309,77.919 880.769,116.823 
			858.309,155.727 		"/>
		<polygon style="fill:#D4BEDC;" points="880.769,116.823 858.309,77.919 880.769,39.015 925.693,39.015 948.154,77.919 
			925.693,116.823 		"/>
		<polygon style="fill:#D7BFDD;" points="948.154,155.727 925.693,116.823 948.154,77.919 993.078,77.919 1015.54,116.823 
			993.078,155.727 		"/>
		<polygon style="fill:#D8BCDA;" points="1015.54,116.823 993.078,77.919 1015.54,39.015 1060.464,39.015 1082.925,77.919 
			1060.464,116.823 		"/>
		<polygon style="fill:#DABCDA;" points="1082.925,155.727 1060.464,116.823 1082.925,77.919 1127.848,77.919 1150.311,116.823 
			1127.848,155.727 		"/>
		<polygon style="fill:#DDBFDC;" points="1150.311,116.823 1127.848,77.919 1150.311,39.015 1195.232,39.015 1217.694,77.919 
			1195.232,116.823 		"/>
		<polygon style="fill:#DCBFDC;" points="1217.694,155.727 1195.232,116.823 1217.694,77.919 1262.618,77.919 1285.079,116.823 
			1262.618,155.727 		"/>
		<polygon style="fill:#BDA6D0;" points="-62.618,194.631 -85.079,155.727 -62.618,116.823 -17.695,116.823 4.767,155.727 
			-17.695,194.631 		"/>
		<polygon style="fill:#BFA7D0;" points="4.767,233.536 -17.695,194.631 4.767,155.727 49.69,155.727 72.152,194.631 49.69,233.536 
					"/>
		<polygon style="fill:#BDA6D0;" points="72.152,194.631 49.69,155.727 72.152,116.823 117.075,116.823 139.537,155.727 
			117.075,194.631 		"/>
		<polygon style="fill:#BEA8D1;" points="139.537,233.536 117.075,194.631 139.537,155.727 184.46,155.727 206.921,194.631 
			184.46,233.536 		"/>
		<polygon style="fill:#BDA7D0;" points="206.921,194.631 184.46,155.727 206.921,116.823 251.845,116.823 274.307,155.727 
			251.845,194.631 		"/>
		<polygon style="fill:#BFAAD2;" points="274.307,233.536 251.845,194.631 274.307,155.727 319.229,155.727 341.692,194.631 
			319.229,233.536 		"/>
		<polygon style="fill:#BFABD3;" points="341.692,194.631 319.229,155.727 341.692,116.823 386.614,116.823 409.076,155.727 
			386.614,194.631 		"/>
		<polygon style="fill:#C3AFD5;" points="409.076,233.536 386.614,194.631 409.076,155.727 453.999,155.727 476.461,194.631 
			453.999,233.536 		"/>
		<polygon style="fill:#C5B2D7;" points="476.461,194.631 453.999,155.727 476.461,116.823 521.385,116.823 543.846,155.727 
			521.385,194.631 		"/>
		<polygon style="fill:#C9B6D9;" points="543.846,233.536 521.385,194.631 543.846,155.727 588.769,155.727 611.231,194.631 
			588.769,233.536 		"/>
		<polygon style="fill:#CAB7D9;" points="611.231,194.631 588.769,155.727 611.231,116.823 656.154,116.823 678.615,155.727 
			656.154,194.631 		"/>
		<polygon style="fill:#CBB7D9;" points="678.615,233.536 656.154,194.631 678.615,155.727 723.539,155.727 746,194.631 
			723.539,233.536 		"/>
		<polygon style="fill:#CDB7D9;" points="746,194.631 723.539,155.727 746,116.823 790.924,116.823 813.386,155.727 
			790.924,194.631 		"/>
		<polygon style="fill:#D1BBDB;" points="813.386,233.536 790.924,194.631 813.386,155.727 858.309,155.727 880.769,194.631 
			858.309,233.536 		"/>
		<polygon style="fill:#D5BFDD;" points="880.769,194.631 858.309,155.727 880.769,116.823 925.693,116.823 948.154,155.727 
			925.693,194.631 		"/>
		<polygon style="fill:#D8BFDD;" points="948.154,233.536 925.693,194.631 948.154,155.727 993.078,155.727 1015.54,194.631 
			993.078,233.536 		"/>
		<polygon style="fill:#D8BCDA;" points="1015.54,194.631 993.078,155.727 1015.54,116.823 1060.464,116.823 1082.925,155.727 
			1060.464,194.631 		"/>
		<polygon style="fill:#DBBDDB;" points="1082.925,233.536 1060.464,194.631 1082.925,155.727 1127.848,155.727 1150.311,194.631 
			1127.848,233.536 		"/>
		<polygon style="fill:#DDC0DC;" points="1150.311,194.631 1127.848,155.727 1150.311,116.823 1195.232,116.823 1217.694,155.727 
			1195.232,194.631 		"/>
		<polygon style="fill:#DDC0DC;" points="1217.694,233.536 1195.232,194.631 1217.694,155.727 1262.618,155.727 1285.079,194.631 
			1262.618,233.536 		"/>
		<polygon style="fill:#C0A8D1;" points="-62.618,272.44 -85.079,233.536 -62.618,194.631 -17.695,194.631 4.767,233.536 
			-17.695,272.44 		"/>
		<polygon style="fill:#C1AAD2;" points="4.767,311.344 -17.695,272.44 4.767,233.536 49.69,233.536 72.152,272.44 49.69,311.344 		
			"/>
		<polygon style="fill:#C0A8D1;" points="72.152,272.44 49.69,233.536 72.152,194.631 117.075,194.631 139.537,233.536 
			117.075,272.44 		"/>
		<polygon style="fill:#C1AAD2;" points="139.537,311.344 117.075,272.44 139.537,233.536 184.46,233.536 206.921,272.44 
			184.46,311.344 		"/>
		<polygon style="fill:#C0AAD2;" points="206.921,272.44 184.46,233.536 206.921,194.631 251.845,194.631 274.307,233.536 
			251.845,272.44 		"/>
		<polygon style="fill:#C2ADD3;" points="274.307,311.344 251.845,272.44 274.307,233.536 319.229,233.536 341.692,272.44 
			319.229,311.344 		"/>
		<polygon style="fill:#C1ADD4;" points="341.692,272.44 319.229,233.536 341.692,194.631 386.614,194.631 409.076,233.536 
			386.614,272.44 		"/>
		<polygon style="fill:#C5B1D6;" points="409.076,311.344 386.614,272.44 409.076,233.536 453.999,233.536 476.461,272.44 
			453.999,311.344 		"/>
		<polygon style="fill:#C7B4D8;" points="476.461,272.44 453.999,233.536 476.461,194.631 521.385,194.631 543.846,233.536 
			521.385,272.44 		"/>
		<polygon style="fill:#CBB7D9;" points="543.846,311.344 521.385,272.44 543.846,233.536 588.769,233.536 611.231,272.44 
			588.769,311.344 		"/>
		<polygon style="fill:#CCB8D9;" points="611.231,272.44 588.769,233.536 611.231,194.631 656.154,194.631 678.615,233.536 
			656.154,272.44 		"/>
		<polygon style="fill:#CDB8DA;" points="678.615,311.344 656.154,272.44 678.615,233.536 723.539,233.536 746,272.44 
			723.539,311.344 		"/>
		<polygon style="fill:#CEB9DA;" points="746,272.44 723.539,233.536 746,194.631 790.924,194.631 813.386,233.536 790.924,272.44 
					"/>
		<polygon style="fill:#D2BCDC;" points="813.386,311.344 790.924,272.44 813.386,233.536 858.309,233.536 880.769,272.44 
			858.309,311.344 		"/>
		<polygon style="fill:#D6C0DD;" points="880.769,272.44 858.309,233.536 880.769,194.631 925.693,194.631 948.154,233.536 
			925.693,272.44 		"/>
		<polygon style="fill:#D9BFDC;" points="948.154,311.344 925.693,272.44 948.154,233.536 993.078,233.536 1015.54,272.44 
			993.078,311.344 		"/>
		<polygon style="fill:#D9BCDA;" points="1015.54,272.44 993.078,233.536 1015.54,194.631 1060.464,194.631 1082.925,233.536 
			1060.464,272.44 		"/>
		<polygon style="fill:#DBBDDB;" points="1082.925,311.344 1060.464,272.44 1082.925,233.536 1127.848,233.536 1150.311,272.44 
			1127.848,311.344 		"/>
		<polygon style="fill:#DEC1DD;" points="1150.311,272.44 1127.848,233.536 1150.311,194.631 1195.232,194.631 1217.694,233.536 
			1195.232,272.44 		"/>
		<polygon style="fill:#DEC1DD;" points="1217.694,311.344 1195.232,272.44 1217.694,233.536 1262.618,233.536 1285.079,272.44 
			1262.618,311.344 		"/>
		<polygon style="fill:#C3ABD2;" points="-62.618,350.249 -85.079,311.344 -62.618,272.44 -17.695,272.44 4.767,311.344 
			-17.695,350.249 		"/>
		<polygon style="fill:#C4ADD3;" points="4.767,389.153 -17.695,350.249 4.767,311.344 49.69,311.344 72.152,350.249 49.69,389.153 
					"/>
		<polygon style="fill:#C3ACD3;" points="72.152,350.249 49.69,311.344 72.152,272.44 117.075,272.44 139.537,311.344 
			117.075,350.249 		"/>
		<polygon style="fill:#C4AED4;" points="139.537,389.153 117.075,350.249 139.537,311.344 184.46,311.344 206.921,350.249 
			184.46,389.153 		"/>
		<polygon style="fill:#C3ADD3;" points="206.921,350.249 184.46,311.344 206.921,272.44 251.845,272.44 274.307,311.344 
			251.845,350.249 		"/>
		<polygon style="fill:#C5B0D5;" points="274.307,389.153 251.845,350.249 274.307,311.344 319.229,311.344 341.692,350.249 
			319.229,389.153 		"/>
		<polygon style="fill:#C4B0D5;" points="341.692,350.249 319.229,311.344 341.692,272.44 386.614,272.44 409.076,311.344 
			386.614,350.249 		"/>
		<polygon style="fill:#C8B3D7;" points="409.076,389.153 386.614,350.249 409.076,311.344 453.999,311.344 476.461,350.249 
			453.999,389.153 		"/>
		<polygon style="fill:#CAB5D8;" points="476.461,350.249 453.999,311.344 476.461,272.44 521.385,272.44 543.846,311.344 
			521.385,350.249 		"/>
		<polygon style="fill:#CEB8D9;" points="543.846,389.153 521.385,350.249 543.846,311.344 588.769,311.344 611.231,350.249 
			588.769,389.153 		"/>
		<polygon style="fill:#CEB8D9;" points="611.231,350.249 588.769,311.344 611.231,272.44 656.154,272.44 678.615,311.344 
			656.154,350.249 		"/>
		<polygon style="fill:#CFB9D9;" points="678.615,389.153 656.154,350.249 678.615,311.344 723.539,311.344 746,350.249 
			723.539,389.153 		"/>
		<polygon style="fill:#CFB9DA;" points="746,350.249 723.539,311.344 746,272.44 790.924,272.44 813.386,311.344 790.924,350.249 
					"/>
		<polygon style="fill:#D3BDDC;" points="813.386,389.153 790.924,350.249 813.386,311.344 858.309,311.344 880.769,350.249 
			858.309,389.153 		"/>
		<polygon style="fill:#D7C0DD;" points="880.769,350.249 858.309,311.344 880.769,272.44 925.693,272.44 948.154,311.344 
			925.693,350.249 		"/>
		<polygon style="fill:#D9BEDC;" points="948.154,389.153 925.693,350.249 948.154,311.344 993.078,311.344 1015.54,350.249 
			993.078,389.153 		"/>
		<polygon style="fill:#DABCDA;" points="1015.54,350.249 993.078,311.344 1015.54,272.44 1060.464,272.44 1082.925,311.344 
			1060.464,350.249 		"/>
		<polygon style="fill:#DCBDDB;" points="1082.925,389.153 1060.464,350.249 1082.925,311.344 1127.848,311.344 1150.311,350.249 
			1127.848,389.153 		"/>
		<polygon style="fill:#DEC2DD;" points="1150.311,350.249 1127.848,311.344 1150.311,272.44 1195.232,272.44 1217.694,311.344 
			1195.232,350.249 		"/>
		<polygon style="fill:#DEC0DC;" points="1217.694,389.153 1195.232,350.249 1217.694,311.344 1262.618,311.344 1285.079,350.249 
			1262.618,389.153 		"/>
		<polygon style="fill:#C5AED4;" points="-62.618,428.057 -85.079,389.153 -62.618,350.249 -17.695,350.249 4.767,389.153 
			-17.695,428.057 		"/>
		<polygon style="fill:#C7B0D5;" points="4.767,466.961 -17.695,428.057 4.767,389.153 49.69,389.153 72.152,428.057 49.69,466.961 
					"/>
		<polygon style="fill:#C5AFD4;" points="72.152,428.057 49.69,389.153 72.152,350.249 117.075,350.249 139.537,389.153 
			117.075,428.057 		"/>
		<polygon style="fill:#C7B1D5;" points="139.537,466.961 117.075,428.057 139.537,389.153 184.46,389.153 206.921,428.057 
			184.46,466.961 		"/>
		<polygon style="fill:#C6B0D5;" points="206.921,428.057 184.46,389.153 206.921,350.249 251.845,350.249 274.307,389.153 
			251.845,428.057 		"/>
		<polygon style="fill:#C9B2D6;" points="274.307,466.961 251.845,428.057 274.307,389.153 319.229,389.153 341.692,428.057 
			319.229,466.961 		"/>
		<polygon style="fill:#C8B2D6;" points="341.692,428.057 319.229,389.153 341.692,350.249 386.614,350.249 409.076,389.153 
			386.614,428.057 		"/>
		<polygon style="fill:#CDB5D7;" points="409.076,466.961 386.614,428.057 409.076,389.153 453.999,389.153 476.461,428.057 
			453.999,466.961 		"/>
		<polygon style="fill:#CDB6D8;" points="476.461,428.057 453.999,389.153 476.461,350.249 521.385,350.249 543.846,389.153 
			521.385,428.057 		"/>
		<polygon style="fill:#D1B8D9;" points="543.846,466.961 521.385,428.057 543.846,389.153 588.769,389.153 611.231,428.057 
			588.769,466.961 		"/>
		<polygon style="fill:#D1B9D9;" points="611.231,428.057 588.769,389.153 611.231,350.249 656.154,350.249 678.615,389.153 
			656.154,428.057 		"/>
		<polygon style="fill:#D2BADA;" points="678.615,466.961 656.154,428.057 678.615,389.153 723.539,389.153 746,428.057 
			723.539,466.961 		"/>
		<polygon style="fill:#D1BADA;" points="746,428.057 723.539,389.153 746,350.249 790.924,350.249 813.386,389.153 
			790.924,428.057 		"/>
		<polygon style="fill:#D4BDDC;" points="813.386,466.961 790.924,428.057 813.386,389.153 858.309,389.153 880.769,428.057 
			858.309,466.961 		"/>
		<polygon style="fill:#D7C0DD;" points="880.769,428.057 858.309,389.153 880.769,350.249 925.693,350.249 948.154,389.153 
			925.693,428.057 		"/>
		<polygon style="fill:#DABDDB;" points="948.154,466.961 925.693,428.057 948.154,389.153 993.078,389.153 1015.54,428.057 
			993.078,466.961 		"/>
		<polygon style="fill:#DABBDA;" points="1015.54,428.057 993.078,389.153 1015.54,350.249 1060.464,350.249 1082.925,389.153 
			1060.464,428.057 		"/>
		<polygon style="fill:#DCBEDB;" points="1082.925,466.961 1060.464,428.057 1082.925,389.153 1127.848,389.153 1150.311,428.057 
			1127.848,466.961 		"/>
		<polygon style="fill:#DFC1DD;" points="1150.311,428.057 1127.848,389.153 1150.311,350.249 1195.232,350.249 1217.694,389.153 
			1195.232,428.057 		"/>
		<polygon style="fill:#E0C0DC;" points="1217.694,466.961 1195.232,428.057 1217.694,389.153 1262.618,389.153 1285.079,428.057 
			1262.618,466.961 		"/>
		<polygon style="fill:#C9B2D6;" points="-62.618,505.865 -85.079,466.961 -62.618,428.057 -17.695,428.057 4.767,466.961 
			-17.695,505.865 		"/>
		<polygon style="fill:#CCB2D6;" points="4.767,544.769 -17.695,505.865 4.767,466.961 49.69,466.961 72.152,505.865 49.69,544.769 
					"/>
		<polygon style="fill:#C9B2D6;" points="72.152,505.865 49.69,466.961 72.152,428.057 117.075,428.057 139.537,466.961 
			117.075,505.865 		"/>
		<polygon style="fill:#CCB3D6;" points="139.537,544.769 117.075,505.865 139.537,466.961 184.46,466.961 206.921,505.865 
			184.46,544.769 		"/>
		<polygon style="fill:#CAB2D6;" points="206.921,505.865 184.46,466.961 206.921,428.057 251.845,428.057 274.307,466.961 
			251.845,505.865 		"/>
		<polygon style="fill:#CDB3D6;" points="274.307,544.769 251.845,505.865 274.307,466.961 319.229,466.961 341.692,505.865 
			319.229,544.769 		"/>
		<polygon style="fill:#CCB3D6;" points="341.692,505.865 319.229,466.961 341.692,428.057 386.614,428.057 409.076,466.961 
			386.614,505.865 		"/>
		<polygon style="fill:#D1B5D7;" points="409.076,544.769 386.614,505.865 409.076,466.961 453.999,466.961 476.461,505.865 
			453.999,544.769 		"/>
		<polygon style="fill:#D1B7D8;" points="476.461,505.865 453.999,466.961 476.461,428.057 521.385,428.057 543.846,466.961 
			521.385,505.865 		"/>
		<polygon style="fill:#D5B9D9;" points="543.846,544.769 521.385,505.865 543.846,466.961 588.769,466.961 611.231,505.865 
			588.769,544.769 		"/>
		<polygon style="fill:#D4BADA;" points="611.231,505.865 588.769,466.961 611.231,428.057 656.154,428.057 678.615,466.961 
			656.154,505.865 		"/>
		<polygon style="fill:#D5BCDA;" points="678.615,544.769 656.154,505.865 678.615,466.961 723.539,466.961 746,505.865 
			723.539,544.769 		"/>
		<polygon style="fill:#D3BCDB;" points="746,505.865 723.539,466.961 746,428.057 790.924,428.057 813.386,466.961 
			790.924,505.865 		"/>
		<polygon style="fill:#D7BEDC;" points="813.386,544.769 790.924,505.865 813.386,466.961 858.309,466.961 880.769,505.865 
			858.309,544.769 		"/>
		<polygon style="fill:#D9BFDC;" points="880.769,505.865 858.309,466.961 880.769,428.057 925.693,428.057 948.154,466.961 
			925.693,505.865 		"/>
		<polygon style="fill:#DCBFDC;" points="948.154,544.769 925.693,505.865 948.154,466.961 993.078,466.961 1015.54,505.865 
			993.078,544.769 		"/>
		<polygon style="fill:#DBBCDA;" points="1015.54,505.865 993.078,466.961 1015.54,428.057 1060.464,428.057 1082.925,466.961 
			1060.464,505.865 		"/>
		<polygon style="fill:#DEC1DD;" points="1082.925,544.769 1060.464,505.865 1082.925,466.961 1127.848,466.961 1150.311,505.865 
			1127.848,544.769 		"/>
		<polygon style="fill:#E1C2DD;" points="1150.311,505.865 1127.848,466.961 1150.311,428.057 1195.232,428.057 1217.694,466.961 
			1195.232,505.865 		"/>
		<polygon style="fill:#E3C3DD;" points="1217.694,544.769 1195.232,505.865 1217.694,466.961 1262.618,466.961 1285.079,505.865 
			1262.618,544.769 		"/>
		<polygon style="fill:#CEB3D6;" points="-62.618,583.674 -85.079,544.769 -62.618,505.865 -17.695,505.865 4.767,544.769 
			-17.695,583.674 		"/>
		<polygon style="fill:#D1B4D6;" points="4.767,622.578 -17.695,583.674 4.767,544.769 49.69,544.769 72.152,583.674 49.69,622.578 
					"/>
		<polygon style="fill:#CEB3D6;" points="72.152,583.674 49.69,544.769 72.152,505.865 117.075,505.865 139.537,544.769 
			117.075,583.674 		"/>
		<polygon style="fill:#D2B3D6;" points="139.537,622.578 117.075,583.674 139.537,544.769 184.46,544.769 206.921,583.674 
			184.46,622.578 		"/>
		<polygon style="fill:#CFB3D6;" points="206.921,583.674 184.46,544.769 206.921,505.865 251.845,505.865 274.307,544.769 
			251.845,583.674 		"/>
		<polygon style="fill:#D3B4D6;" points="274.307,622.578 251.845,583.674 274.307,544.769 319.229,544.769 341.692,583.674 
			319.229,622.578 		"/>
		<polygon style="fill:#D2B4D6;" points="341.692,583.674 319.229,544.769 341.692,505.865 386.614,505.865 409.076,544.769 
			386.614,583.674 		"/>
		<polygon style="fill:#D6B6D7;" points="409.076,622.578 386.614,583.674 409.076,544.769 453.999,544.769 476.461,583.674 
			453.999,622.578 		"/>
		<polygon style="fill:#D6B8D8;" points="476.461,583.674 453.999,544.769 476.461,505.865 521.385,505.865 543.846,544.769 
			521.385,583.674 		"/>
		<polygon style="fill:#DABCDA;" points="543.846,622.578 521.385,583.674 543.846,544.769 588.769,544.769 611.231,583.674 
			588.769,622.578 		"/>
		<polygon style="fill:#D8BCDB;" points="611.231,583.674 588.769,544.769 611.231,505.865 656.154,505.865 678.615,544.769 
			656.154,583.674 		"/>
		<polygon style="fill:#DABFDC;" points="678.615,622.578 656.154,583.674 678.615,544.769 723.539,544.769 746,583.674 
			723.539,622.578 		"/>
		<polygon style="fill:#D7BEDC;" points="746,583.674 723.539,544.769 746,505.865 790.924,505.865 813.386,544.769 
			790.924,583.674 		"/>
		<polygon style="fill:#DCC1DD;" points="813.386,622.578 790.924,583.674 813.386,544.769 858.309,544.769 880.769,583.674 
			858.309,622.578 		"/>
		<polygon style="fill:#DCC1DD;" points="880.769,583.674 858.309,544.769 880.769,505.865 925.693,505.865 948.154,544.769 
			925.693,583.674 		"/>
		<polygon style="fill:#E0C5DF;" points="948.154,622.578 925.693,583.674 948.154,544.769 993.078,544.769 1015.54,583.674 
			993.078,622.578 		"/>
		<polygon style="fill:#DEC1DD;" points="1015.54,583.674 993.078,544.769 1015.54,505.865 1060.464,505.865 1082.925,544.769 
			1060.464,583.674 		"/>
		<polygon style="fill:#E4C8E0;" points="1082.925,622.578 1060.464,583.674 1082.925,544.769 1127.848,544.769 1150.311,583.674 
			1127.848,622.578 		"/>
		<polygon style="fill:#E5C7DF;" points="1150.311,583.674 1127.848,544.769 1150.311,505.865 1195.232,505.865 1217.694,544.769 
			1195.232,583.674 		"/>
		<polygon style="fill:#E8CAE1;" points="1217.694,622.578 1195.232,583.674 1217.694,544.769 1262.618,544.769 1285.079,583.674 
			1262.618,622.578 		"/>
		<polygon style="fill:#D4B4D6;" points="-62.618,661.482 -85.079,622.578 -62.618,583.674 -17.695,583.674 4.767,622.578 
			-17.695,661.482 		"/>
		<polygon style="fill:#D9B5D6;" points="4.767,700.387 -17.695,661.482 4.767,622.578 49.69,622.578 72.152,661.482 49.69,700.387 
					"/>
		<polygon style="fill:#D5B4D6;" points="72.152,661.482 49.69,622.578 72.152,583.674 117.075,583.674 139.537,622.578 
			117.075,661.482 		"/>
		<polygon style="fill:#D9B5D6;" points="139.537,700.387 117.075,661.482 139.537,622.578 184.46,622.578 206.921,661.482 
			184.46,700.387 		"/>
		<polygon style="fill:#D6B4D6;" points="206.921,661.482 184.46,622.578 206.921,583.674 251.845,583.674 274.307,622.578 
			251.845,661.482 		"/>
		<polygon style="fill:#DAB7D7;" points="274.307,700.387 251.845,661.482 274.307,622.578 319.229,622.578 341.692,661.482 
			319.229,700.387 		"/>
		<polygon style="fill:#D8B6D7;" points="341.692,661.482 319.229,622.578 341.692,583.674 386.614,583.674 409.076,622.578 
			386.614,661.482 		"/>
		<polygon style="fill:#DDBCDA;" points="409.076,700.387 386.614,661.482 409.076,622.578 453.999,622.578 476.461,661.482 
			453.999,700.387 		"/>
		<polygon style="fill:#DBBCDA;" points="476.461,661.482 453.999,622.578 476.461,583.674 521.385,583.674 543.846,622.578 
			521.385,661.482 		"/>
		<polygon style="fill:#E0C3DE;" points="543.846,700.387 521.385,661.482 543.846,622.578 588.769,622.578 611.231,661.482 
			588.769,700.387 		"/>
		<polygon style="fill:#DDC1DD;" points="611.231,661.482 588.769,622.578 611.231,583.674 656.154,583.674 678.615,622.578 
			656.154,661.482 		"/>
		<polygon style="fill:#DFC6E0;" points="678.615,700.387 656.154,661.482 678.615,622.578 723.539,622.578 746,661.482 
			723.539,700.387 		"/>
		<polygon style="fill:#DCC3DE;" points="746,661.482 723.539,622.578 746,583.674 790.924,583.674 813.386,622.578 
			790.924,661.482 		"/>
		<polygon style="fill:#E2C9E1;" points="813.386,700.387 790.924,661.482 813.386,622.578 858.309,622.578 880.769,661.482 
			858.309,700.387 		"/>
		<polygon style="fill:#E1C8E1;" points="880.769,661.482 858.309,622.578 880.769,583.674 925.693,583.674 948.154,622.578 
			925.693,661.482 		"/>
		<polygon style="fill:#E5CDE4;" points="948.154,700.387 925.693,661.482 948.154,622.578 993.078,622.578 1015.54,661.482 
			993.078,700.387 		"/>
		<polygon style="fill:#E3CAE2;" points="1015.54,661.482 993.078,622.578 1015.54,583.674 1060.464,583.674 1082.925,622.578 
			1060.464,661.482 		"/>
		<polygon style="fill:#EAD0E5;" points="1082.925,700.387 1060.464,661.482 1082.925,622.578 1127.848,622.578 1150.311,661.482 
			1127.848,700.387 		"/>
		<polygon style="fill:#EBCFE4;" points="1150.311,661.482 1127.848,622.578 1150.311,583.674 1195.232,583.674 1217.694,622.578 
			1195.232,661.482 		"/>
		<polygon style="fill:#EDD4E6;" points="1217.694,700.387 1195.232,661.482 1217.694,622.578 1262.618,622.578 1285.079,661.482 
			1262.618,700.387 		"/>
		<polygon style="fill:#DCB7D6;" points="-62.618,739.291 -85.079,700.387 -62.618,661.482 -17.695,661.482 4.767,700.387 
			-17.695,739.291 		"/>
		<polygon style="fill:#DFBAD8;" points="4.767,778.195 -17.695,739.291 4.767,700.387 49.69,700.387 72.152,739.291 49.69,778.195 
					"/>
		<polygon style="fill:#DCB7D6;" points="72.152,739.291 49.69,700.387 72.152,661.482 117.075,661.482 139.537,700.387 
			117.075,739.291 		"/>
		<polygon style="fill:#DFBBD9;" points="139.537,778.195 117.075,739.291 139.537,700.387 184.46,700.387 206.921,739.291 
			184.46,778.195 		"/>
		<polygon style="fill:#DDB9D8;" points="206.921,739.291 184.46,700.387 206.921,661.482 251.845,661.482 274.307,700.387 
			251.845,739.291 		"/>
		<polygon style="fill:#E0BFDB;" points="274.307,778.195 251.845,739.291 274.307,700.387 319.229,700.387 341.692,739.291 
			319.229,778.195 		"/>
		<polygon style="fill:#DEBDDA;" points="341.692,739.291 319.229,700.387 341.692,661.482 386.614,661.482 409.076,700.387 
			386.614,739.291 		"/>
		<polygon style="fill:#E3C6DF;" points="409.076,778.195 386.614,739.291 409.076,700.387 453.999,700.387 476.461,739.291 
			453.999,778.195 		"/>
		<polygon style="fill:#E2C4DE;" points="476.461,739.291 453.999,700.387 476.461,661.482 521.385,661.482 543.846,700.387 
			521.385,739.291 		"/>
		<polygon style="fill:#E5CCE3;" points="543.846,778.195 521.385,739.291 543.846,700.387 588.769,700.387 611.231,739.291 
			588.769,778.195 		"/>
		<polygon style="fill:#E2C9E1;" points="611.231,739.291 588.769,700.387 611.231,661.482 656.154,661.482 678.615,700.387 
			656.154,739.291 		"/>
		<polygon style="fill:#E5CCE3;" points="678.615,778.195 656.154,739.291 678.615,700.387 723.539,700.387 746,739.291 
			723.539,778.195 		"/>
		<polygon style="fill:#E3CAE2;" points="746,739.291 723.539,700.387 746,661.482 790.924,661.482 813.386,700.387 
			790.924,739.291 		"/>
		<polygon style="fill:#E7CFE5;" points="813.386,778.195 790.924,739.291 813.386,700.387 858.309,700.387 880.769,739.291 
			858.309,778.195 		"/>
		<polygon style="fill:#E7D0E5;" points="880.769,739.291 858.309,700.387 880.769,661.482 925.693,661.482 948.154,700.387 
			925.693,739.291 		"/>
		<polygon style="fill:#E9D3E7;" points="948.154,778.195 925.693,739.291 948.154,700.387 993.078,700.387 1015.54,739.291 
			993.078,778.195 		"/>
		<polygon style="fill:#E8D1E6;" points="1015.54,739.291 993.078,700.387 1015.54,661.482 1060.464,661.482 1082.925,700.387 
			1060.464,739.291 		"/>
		<polygon style="fill:#EED5E7;" points="1082.925,778.195 1060.464,739.291 1082.925,700.387 1127.848,700.387 1150.311,739.291 
			1127.848,778.195 		"/>
		<polygon style="fill:#EFD6E8;" points="1150.311,739.291 1127.848,700.387 1150.311,661.482 1195.232,661.482 1217.694,700.387 
			1195.232,739.291 		"/>
		<polygon style="fill:#EFD8E9;" points="1217.694,778.195 1195.232,739.291 1217.694,700.387 1262.618,700.387 1285.079,739.291 
			1262.618,778.195 		"/>
		<polygon style="fill:#E2BEDB;" points="-62.618,817.1 -85.079,778.195 -62.618,739.291 -17.695,739.291 4.767,778.195 
			-17.695,817.1 		"/>
		<polygon style="fill:#E5C3DD;" points="4.767,856.003 -17.695,817.1 4.767,778.195 49.69,778.195 72.152,817.1 49.69,856.003 		
			"/>
		<polygon style="fill:#E2BFDB;" points="72.152,817.1 49.69,778.195 72.152,739.291 117.075,739.291 139.537,778.195 
			117.075,817.1 		"/>
		<polygon style="fill:#E5C5DE;" points="139.537,856.003 117.075,817.1 139.537,778.195 184.46,778.195 206.921,817.1 
			184.46,856.003 		"/>
		<polygon style="fill:#E3C2DD;" points="206.921,817.1 184.46,778.195 206.921,739.291 251.845,739.291 274.307,778.195 
			251.845,817.1 		"/>
		<polygon style="fill:#E6C9E0;" points="274.307,856.003 251.845,817.1 274.307,778.195 319.229,778.195 341.692,817.1 
			319.229,856.003 		"/>
		<polygon style="fill:#E4C7E0;" points="341.692,817.1 319.229,778.195 341.692,739.291 386.614,739.291 409.076,778.195 
			386.614,817.1 		"/>
		<polygon style="fill:#E8CDE3;" points="409.076,856.003 386.614,817.1 409.076,778.195 453.999,778.195 476.461,817.1 
			453.999,856.003 		"/>
		<polygon style="fill:#E7CDE3;" points="476.461,817.1 453.999,778.195 476.461,739.291 521.385,739.291 543.846,778.195 
			521.385,817.1 		"/>
		<polygon style="fill:#EBCFE4;" points="543.846,856.003 521.385,817.1 543.846,778.195 588.769,778.195 611.231,817.1 
			588.769,856.003 		"/>
		<polygon style="fill:#E8CEE4;" points="611.231,817.1 588.769,778.195 611.231,739.291 656.154,739.291 678.615,778.195 
			656.154,817.1 		"/>
		<polygon style="fill:#E9CDE3;" points="678.615,856.003 656.154,817.1 678.615,778.195 723.539,778.195 746,817.1 
			723.539,856.003 		"/>
		<polygon style="fill:#E8CEE4;" points="746,817.1 723.539,778.195 746,739.291 790.924,739.291 813.386,778.195 790.924,817.1 		
			"/>
		<polygon style="fill:#ECD2E6;" points="813.386,856.003 790.924,817.1 813.386,778.195 858.309,778.195 880.769,817.1 
			858.309,856.003 		"/>
		<polygon style="fill:#EAD4E7;" points="880.769,817.1 858.309,778.195 880.769,739.291 925.693,739.291 948.154,778.195 
			925.693,817.1 		"/>
		<polygon style="fill:#ECD3E7;" points="948.154,856.003 925.693,817.1 948.154,778.195 993.078,778.195 1015.54,817.1 
			993.078,856.003 		"/>
		<polygon style="fill:#ECD3E6;" points="1015.54,817.1 993.078,778.195 1015.54,739.291 1060.464,739.291 1082.925,778.195 
			1060.464,817.1 		"/>
		<polygon style="fill:#EFD6E7;" points="1082.925,856.003 1060.464,817.1 1082.925,778.195 1127.848,778.195 1150.311,817.1 
			1127.848,856.003 		"/>
		<polygon style="fill:#F0D8E9;" points="1150.311,817.1 1127.848,778.195 1150.311,739.291 1195.232,739.291 1217.694,778.195 
			1195.232,817.1 		"/>
		<polygon style="fill:#F0D8E9;" points="1217.694,856.003 1195.232,817.1 1217.694,778.195 1262.618,778.195 1285.079,817.1 
			1262.618,856.003 		"/>
		<polygon style="fill:#E8C7DC;" points="-62.618,894.908 -85.079,856.003 -62.618,817.1 -17.695,817.1 4.767,856.003 
			-17.695,894.908 		"/>
		<polygon style="fill:#EBC8DA;" points="4.767,933.813 -17.695,894.908 4.767,856.003 49.69,856.003 72.152,894.908 49.69,933.813 
					"/>
		<polygon style="fill:#E8C7DD;" points="72.152,894.908 49.69,856.003 72.152,817.1 117.075,817.1 139.537,856.003 
			117.075,894.908 		"/>
		<polygon style="fill:#ECC9DB;" points="139.537,933.813 117.075,894.908 139.537,856.003 184.46,856.003 206.921,894.908 
			184.46,933.813 		"/>
		<polygon style="fill:#E9CADF;" points="206.921,894.908 184.46,856.003 206.921,817.1 251.845,817.1 274.307,856.003 
			251.845,894.908 		"/>
		<polygon style="fill:#EDCCDE;" points="274.307,933.813 251.845,894.908 274.307,856.003 319.229,856.003 341.692,894.908 
			319.229,933.813 		"/>
		<polygon style="fill:#EACDE2;" points="341.692,894.908 319.229,856.003 341.692,817.1 386.614,817.1 409.076,856.003 
			386.614,894.908 		"/>
		<polygon style="fill:#EFCDE2;" points="409.076,933.813 386.614,894.908 409.076,856.003 453.999,856.003 476.461,894.908 
			453.999,933.813 		"/>
		<polygon style="fill:#EDCFE4;" points="476.461,894.908 453.999,856.003 476.461,817.1 521.385,817.1 543.846,856.003 
			521.385,894.908 		"/>
		<polygon style="fill:#F0CBE1;" points="543.846,933.813 521.385,894.908 543.846,856.003 588.769,856.003 611.231,894.908 
			588.769,933.813 		"/>
		<polygon style="fill:#EDCDE2;" points="611.231,894.908 588.769,856.003 611.231,817.1 656.154,817.1 678.615,856.003 
			656.154,894.908 		"/>
		<polygon style="fill:#EFCCE1;" points="678.615,933.813 656.154,894.908 678.615,856.003 723.539,856.003 746,894.908 
			723.539,933.813 		"/>
		<polygon style="fill:#EDCFE3;" points="746,894.908 723.539,856.003 746,817.1 790.924,817.1 813.386,856.003 790.924,894.908 		
			"/>
		<polygon style="fill:#F1D3E5;" points="813.386,933.813 790.924,894.908 813.386,856.003 858.309,856.003 880.769,894.908 
			858.309,933.813 		"/>
		<polygon style="fill:#EFD4E6;" points="880.769,894.908 858.309,856.003 880.769,817.1 925.693,817.1 948.154,856.003 
			925.693,894.908 		"/>
		<polygon style="fill:#F0D5E7;" points="948.154,933.813 925.693,894.908 948.154,856.003 993.078,856.003 1015.54,894.908 
			993.078,933.813 		"/>
		<polygon style="fill:#EED4E6;" points="1015.54,894.908 993.078,856.003 1015.54,817.1 1060.464,817.1 1082.925,856.003 
			1060.464,894.908 		"/>
		<polygon style="fill:#F1DAEA;" points="1082.925,933.813 1060.464,894.908 1082.925,856.003 1127.848,856.003 1150.311,894.908 
			1127.848,933.813 		"/>
		<polygon style="fill:#F1D9EA;" points="1150.311,894.908 1127.848,856.003 1150.311,817.1 1195.232,817.1 1217.694,856.003 
			1195.232,894.908 		"/>
		<polygon style="fill:#F3DAEA;" points="1217.694,933.813 1195.232,894.908 1217.694,856.003 1262.618,856.003 1285.079,894.908 
			1262.618,933.813 		"/>
		<polygon style="fill:#EFC7D7;" points="-62.618,972.716 -85.079,933.813 -62.618,894.908 -17.695,894.908 4.767,933.813 
			-17.695,972.716 		"/>
		<polygon style="fill:#F2C4D3;" points="4.767,1011.621 -17.695,972.716 4.767,933.813 49.69,933.813 72.152,972.716 
			49.69,1011.621 		"/>
		<polygon style="fill:#EFC7D8;" points="72.152,972.716 49.69,933.813 72.152,894.908 117.075,894.908 139.537,933.813 
			117.075,972.716 		"/>
		<polygon style="fill:#F4C5D4;" points="139.537,1011.621 117.075,972.716 139.537,933.813 184.46,933.813 206.921,972.716 
			184.46,1011.621 		"/>
		<polygon style="fill:#F0C9D9;" points="206.921,972.716 184.46,933.813 206.921,894.908 251.845,894.908 274.307,933.813 
			251.845,972.716 		"/>
		<polygon style="fill:#F6C7D7;" points="274.307,1011.621 251.845,972.716 274.307,933.813 319.229,933.813 341.692,972.716 
			319.229,1011.621 		"/>
		<polygon style="fill:#F2CADC;" points="341.692,972.716 319.229,933.813 341.692,894.908 386.614,894.908 409.076,933.813 
			386.614,972.716 		"/>
		<polygon style="fill:#F7C9DD;" points="409.076,1011.621 386.614,972.716 409.076,933.813 453.999,933.813 476.461,972.716 
			453.999,1011.621 		"/>
		<polygon style="fill:#F3C9DF;" points="476.461,972.716 453.999,933.813 476.461,894.908 521.385,894.908 543.846,933.813 
			521.385,972.716 		"/>
		<polygon style="fill:#F5CCE0;" points="543.846,1011.621 521.385,972.716 543.846,933.813 588.769,933.813 611.231,972.716 
			588.769,1011.621 		"/>
		<polygon style="fill:#F2CBE0;" points="611.231,972.716 588.769,933.813 611.231,894.908 656.154,894.908 678.615,933.813 
			656.154,972.716 		"/>
		<polygon style="fill:#F4D1E4;" points="678.615,1011.621 656.154,972.716 678.615,933.813 723.539,933.813 746,972.716 
			723.539,1011.621 		"/>
		<polygon style="fill:#F2D1E4;" points="746,972.716 723.539,933.813 746,894.908 790.924,894.908 813.386,933.813 
			790.924,972.716 		"/>
		<polygon style="fill:#F6DAE9;" points="813.386,1011.621 790.924,972.716 813.386,933.813 858.309,933.813 880.769,972.716 
			858.309,1011.621 		"/>
		<polygon style="fill:#F4D7E8;" points="880.769,972.716 858.309,933.813 880.769,894.908 925.693,894.908 948.154,933.813 
			925.693,972.716 		"/>
		<polygon style="fill:#F4DEEC;" points="948.154,1011.621 925.693,972.716 948.154,933.813 993.078,933.813 1015.54,972.716 
			993.078,1011.621 		"/>
		<polygon style="fill:#F2DBEA;" points="1015.54,972.716 993.078,933.813 1015.54,894.908 1060.464,894.908 1082.925,933.813 
			1060.464,972.716 		"/>
		<polygon style="fill:#F7E3EF;" points="1082.925,1011.621 1060.464,972.716 1082.925,933.813 1127.848,933.813 1150.311,972.716 
			1127.848,1011.621 		"/>
		<polygon style="fill:#F5DFED;" points="1150.311,972.716 1127.848,933.813 1150.311,894.908 1195.232,894.908 1217.694,933.813 
			1195.232,972.716 		"/>
		<polygon style="fill:#F8E2EE;" points="1217.694,1011.621 1195.232,972.716 1217.694,933.813 1262.618,933.813 1285.079,972.716 
			1262.618,1011.621 		"/>
		<polygon style="fill:#F6C3D2;" points="-62.618,1050.525 -85.079,1011.621 -62.618,972.716 -17.695,972.716 4.767,1011.621 
			-17.695,1050.525 		"/>
		<polygon style="fill:#F9C8D5;" points="4.767,1089.429 -17.695,1050.525 4.767,1011.621 49.69,1011.621 72.152,1050.525 
			49.69,1089.429 		"/>
		<polygon style="fill:#F7C4D2;" points="72.152,1050.525 49.69,1011.621 72.152,972.716 117.075,972.716 139.537,1011.621 
			117.075,1050.525 		"/>
		<polygon style="fill:#FACAD7;" points="139.537,1089.429 117.075,1050.525 139.537,1011.621 184.46,1011.621 206.921,1050.525 
			184.46,1089.429 		"/>
		<polygon style="fill:#F8C7D5;" points="206.921,1050.525 184.46,1011.621 206.921,972.716 251.845,972.716 274.307,1011.621 
			251.845,1050.525 		"/>
		<polygon style="fill:#FACEDB;" points="274.307,1089.429 251.845,1050.525 274.307,1011.621 319.229,1011.621 341.692,1050.525 
			319.229,1089.429 		"/>
		<polygon style="fill:#F9CADB;" points="341.692,1050.525 319.229,1011.621 341.692,972.716 386.614,972.716 409.076,1011.621 
			386.614,1050.525 		"/>
		<polygon style="fill:#FAD2E1;" points="409.076,1089.429 386.614,1050.525 409.076,1011.621 453.999,1011.621 476.461,1050.525 
			453.999,1089.429 		"/>
		<polygon style="fill:#F9CFE2;" points="476.461,1050.525 453.999,1011.621 476.461,972.716 521.385,972.716 543.846,1011.621 
			521.385,1050.525 		"/>
		<polygon style="fill:#FAD6E6;" points="543.846,1089.429 521.385,1050.525 543.846,1011.621 588.769,1011.621 611.231,1050.525 
			588.769,1089.429 		"/>
		<polygon style="fill:#F7D3E5;" points="611.231,1050.525 588.769,1011.621 611.231,972.716 656.154,972.716 678.615,1011.621 
			656.154,1050.525 		"/>
		<polygon style="fill:#FADBE9;" points="678.615,1089.429 656.154,1050.525 678.615,1011.621 723.539,1011.621 746,1050.525 
			723.539,1089.429 		"/>
		<polygon style="fill:#F8DBE9;" points="746,1050.525 723.539,1011.621 746,972.716 790.924,972.716 813.386,1011.621 
			790.924,1050.525 		"/>
		<polygon style="fill:#FADFEC;" points="813.386,1089.429 790.924,1050.525 813.386,1011.621 858.309,1011.621 880.769,1050.525 
			858.309,1089.429 		"/>
		<polygon style="fill:#F8E0EC;" points="880.769,1050.525 858.309,1011.621 880.769,972.716 925.693,972.716 948.154,1011.621 
			925.693,1050.525 		"/>
		<polygon style="fill:#F9E2EE;" points="948.154,1089.429 925.693,1050.525 948.154,1011.621 993.078,1011.621 1015.54,1050.525 
			993.078,1089.429 		"/>
		<polygon style="fill:#F7E3EF;" points="1015.54,1050.525 993.078,1011.621 1015.54,972.716 1060.464,972.716 1082.925,1011.621 
			1060.464,1050.525 		"/>
		<polygon style="fill:#F7E3EF;" points="1082.925,1089.429 1060.464,1050.525 1082.925,1011.621 1127.848,1011.621 
			1150.311,1050.525 1127.848,1089.429 		"/>
		<polygon style="fill:#F8E4EF;" points="1150.311,1050.525 1127.848,1011.621 1150.311,972.716 1195.232,972.716 
			1217.694,1011.621 1195.232,1050.525 		"/>
		<polygon style="fill:#F8E4EF;" points="1217.694,1089.429 1195.232,1050.525 1217.694,1011.621 1262.618,1011.621 
			1285.079,1050.525 1262.618,1089.429 		"/>
		<polygon style="fill:#FACDD8;" points="-62.618,1128.333 -85.079,1089.429 -62.618,1050.525 -17.695,1050.525 4.767,1089.429 
			-17.695,1128.333 		"/>
		<polygon style="fill:#FACFD8;" points="4.767,1167.238 -17.695,1128.333 4.767,1089.429 49.69,1089.429 72.152,1128.333 
			49.69,1167.238 		"/>
		<polygon style="fill:#FACED9;" points="72.152,1128.333 49.69,1089.429 72.152,1050.525 117.075,1050.525 139.537,1089.429 
			117.075,1128.333 		"/>
		<polygon style="fill:#FBD1D9;" points="139.537,1167.238 117.075,1128.333 139.537,1089.429 184.46,1089.429 206.921,1128.333 
			184.46,1167.238 		"/>
		<polygon style="fill:#FAD0DC;" points="206.921,1128.333 184.46,1089.429 206.921,1050.525 251.845,1050.525 274.307,1089.429 
			251.845,1128.333 		"/>
		<polygon style="fill:#FBD3DC;" points="274.307,1167.238 251.845,1128.333 274.307,1089.429 319.229,1089.429 341.692,1128.333 
			319.229,1167.238 		"/>
		<polygon style="fill:#FBD4DF;" points="341.692,1128.333 319.229,1089.429 341.692,1050.525 386.614,1050.525 409.076,1089.429 
			386.614,1128.333 		"/>
		<polygon style="fill:#FBD6E0;" points="409.076,1167.238 386.614,1128.333 409.076,1089.429 453.999,1089.429 476.461,1128.333 
			453.999,1167.238 		"/>
		<polygon style="fill:#FBD8E5;" points="476.461,1128.333 453.999,1089.429 476.461,1050.525 521.385,1050.525 543.846,1089.429 
			521.385,1128.333 		"/>
		<polygon style="fill:#FBD7E6;" points="543.846,1167.238 521.385,1128.333 543.846,1089.429 588.769,1089.429 611.231,1128.333 
			588.769,1167.238 		"/>
		<polygon style="fill:#FBDAE8;" points="611.231,1128.333 588.769,1089.429 611.231,1050.525 656.154,1050.525 678.615,1089.429 
			656.154,1128.333 		"/>
		<polygon style="fill:#FADAE8;" points="678.615,1167.238 656.154,1128.333 678.615,1089.429 723.539,1089.429 746,1128.333 
			723.539,1167.238 		"/>
		<polygon style="fill:#FADDEA;" points="746,1128.333 723.539,1089.429 746,1050.525 790.924,1050.525 813.386,1089.429 
			790.924,1128.333 		"/>
		<polygon style="fill:#F9DEEB;" points="813.386,1167.238 790.924,1128.333 813.386,1089.429 858.309,1089.429 880.769,1128.333 
			858.309,1167.238 		"/>
		<polygon style="fill:#FAE0ED;" points="880.769,1128.333 858.309,1089.429 880.769,1050.525 925.693,1050.525 948.154,1089.429 
			925.693,1128.333 		"/>
		<polygon style="fill:#F8E0ED;" points="948.154,1167.238 925.693,1128.333 948.154,1089.429 993.078,1089.429 1015.54,1128.333 
			993.078,1167.238 		"/>
		<polygon style="fill:#F7E1ED;" points="1015.54,1128.333 993.078,1089.429 1015.54,1050.525 1060.464,1050.525 1082.925,1089.429 
			1060.464,1128.333 		"/>
		<polygon style="fill:#F6E3EE;" points="1082.925,1167.238 1060.464,1128.333 1082.925,1089.429 1127.848,1089.429 
			1150.311,1128.333 1127.848,1167.238 		"/>
		<polygon style="fill:#F7E2EE;" points="1150.311,1128.333 1127.848,1089.429 1150.311,1050.525 1195.232,1050.525 
			1217.694,1089.429 1195.232,1128.333 		"/>
		<polygon style="fill:#F9E4EF;" points="1217.694,1167.238 1195.232,1128.333 1217.694,1089.429 1262.618,1089.429 
			1285.079,1128.333 1262.618,1167.238 		"/>
		<polygon style="fill:#FBCED4;" points="-62.618,1206.142 -85.079,1167.238 -62.618,1128.333 -17.695,1128.333 4.767,1167.238 
			-17.695,1206.142 		"/>
		<polygon style="fill:#FACED2;" points="4.767,1245.046 -17.695,1206.142 4.767,1167.238 49.69,1167.238 72.152,1206.142 
			49.69,1245.046 		"/>
		<polygon style="fill:#FBCFD5;" points="72.152,1206.142 49.69,1167.238 72.152,1128.333 117.075,1128.333 139.537,1167.238 
			117.075,1206.142 		"/>
		<polygon style="fill:#FBCFD4;" points="139.537,1245.046 117.075,1206.142 139.537,1167.238 184.46,1167.238 206.921,1206.142 
			184.46,1245.046 		"/>
		<polygon style="fill:#FBD1D8;" points="206.921,1206.142 184.46,1167.238 206.921,1128.333 251.845,1128.333 274.307,1167.238 
			251.845,1206.142 		"/>
		<polygon style="fill:#FBD1D8;" points="274.307,1245.046 251.845,1206.142 274.307,1167.238 319.229,1167.238 341.692,1206.142 
			319.229,1245.046 		"/>
		<polygon style="fill:#FBD3DB;" points="341.692,1206.142 319.229,1167.238 341.692,1128.333 386.614,1128.333 409.076,1167.238 
			386.614,1206.142 		"/>
		<polygon style="fill:#FBD3DE;" points="409.076,1245.046 386.614,1206.142 409.076,1167.238 453.999,1167.238 476.461,1206.142 
			453.999,1245.046 		"/>
		<polygon style="fill:#FBD4E1;" points="476.461,1206.142 453.999,1167.238 476.461,1128.333 521.385,1128.333 543.846,1167.238 
			521.385,1206.142 		"/>
		<polygon style="fill:#F9D8E4;" points="543.846,1245.046 521.385,1206.142 543.846,1167.238 588.769,1167.238 611.231,1206.142 
			588.769,1245.046 		"/>
		<polygon style="fill:#F9D8E7;" points="611.231,1206.142 588.769,1167.238 611.231,1128.333 656.154,1128.333 678.615,1167.238 
			656.154,1206.142 		"/>
		<polygon style="fill:#F7DDE8;" points="678.615,1245.046 656.154,1206.142 678.615,1167.238 723.539,1167.238 746,1206.142 
			723.539,1245.046 		"/>
		<polygon style="fill:#F8DDEA;" points="746,1206.142 723.539,1167.238 746,1128.333 790.924,1128.333 813.386,1167.238 
			790.924,1206.142 		"/>
		<polygon style="fill:#F8E1ED;" points="813.386,1245.046 790.924,1206.142 813.386,1167.238 858.309,1167.238 880.769,1206.142 
			858.309,1245.046 		"/>
		<polygon style="fill:#F8E0EC;" points="880.769,1206.142 858.309,1167.238 880.769,1128.333 925.693,1128.333 948.154,1167.238 
			925.693,1206.142 		"/>
		<polygon style="fill:#F6E5F0;" points="948.154,1245.046 925.693,1206.142 948.154,1167.238 993.078,1167.238 1015.54,1206.142 
			993.078,1245.046 		"/>
		<polygon style="fill:#F6E4F0;" points="1015.54,1206.142 993.078,1167.238 1015.54,1128.333 1060.464,1128.333 1082.925,1167.238 
			1060.464,1206.142 		"/>
		<polygon style="fill:#F7EAF3;" points="1082.925,1245.046 1060.464,1206.142 1082.925,1167.238 1127.848,1167.238 
			1150.311,1206.142 1127.848,1245.046 		"/>
		<polygon style="fill:#F8E6F1;" points="1150.311,1206.142 1127.848,1167.238 1150.311,1128.333 1195.232,1128.333 
			1217.694,1167.238 1195.232,1206.142 		"/>
		<polygon style="fill:#F8EBF3;" points="1217.694,1245.046 1195.232,1206.142 1217.694,1167.238 1262.618,1167.238 
			1285.079,1206.142 1262.618,1245.046 		"/>
	</g>
</g>
</svg>
