<svg xmlns="http://www.w3.org/2000/svg" version="1.1" viewBox="-5.0 -10.0 110.0 135.0">
 <path d="m73.5 47.996c-0.003906 0.015625-0.027344 0.035156-0.058594 0.0625-0.89453 0.74219-1.9141 1.2344-3.0547 1.4609-0.20312 0.042969-0.58984 0.078125-1.1641 0.10938-0.72656 0.039063-1.4297-0.0625-2.1094-0.30078-0.054687-0.019531-0.097656-0.003906-0.125 0.046875-0.89844 1.832-2.0508 3.4648-3.4453 4.8945-1.8242 1.8711-3.9648 3.2891-6.4297 4.2461-0.32031 0.125-0.61328 0.22266-0.86719 0.29297-0.054688 0.015625-0.078125 0.050781-0.078125 0.10156-0.015625 0.64062 0.019531 1.2109 0.10156 1.7148 0.042969 0.24609 0.0625 0.48828 0.070313 0.73047 0.003906 0.38281 0.039062 0.75781 0.10938 1.1328 0.082031 0.46484 0.039062 1.0078 0.12891 1.4375 0.058594 0.28125 0.09375 0.5625 0.10547 0.85547 0.003906 0.19141 0.019531 0.375 0.054687 0.55078 0.042969 0.19922 0.078125 0.49219 0.11719 0.88281 0.019531 0.20312 0.11328 0.76562 0.28516 1.6875 0.10547 0.57031 0.20703 1.0039 0.3125 1.2891 0.28516 0.8125 0.72266 1.543 1.3125 2.1953 0.39453 0.42969 0.85547 0.84766 1.3867 1.2578 0.75 0.57422 1.5547 1.0859 2.4258 1.5273 0.82422 0.42578 1.6719 0.82812 2.5352 1.2148 0.49219 0.21875 1.4922 0.64453 3 1.2812 1.5312 0.64844 2.9922 1.3477 4.3828 2.1016 0.50391 0.27734 0.97266 0.58594 1.3984 0.90625 0.80859 0.625 1.4648 1.3398 1.9766 2.1484 0.41406 0.66406 0.77344 1.4531 1.0625 2.3516 0.30078 0.91797 0.51562 1.7344 0.65625 2.4531 0.054687 0.3125 0.085937 0.49219 0.097656 0.52344 0.042969 0.1875 0.066406 0.34375 0.082031 0.46875 0.027344 0.20312 0.054688 0.35938 0.085938 0.47266 0.082031 0.34766 0.085937 0.82422 0.13281 1.1055 0.074219 0.46875 0.11719 0.78906 0.13281 0.97266 0.007812 0.089844 0.023437 0.18359 0.046875 0.28516 0.007812 0.054688 0.023437 0.14844 0.050781 0.28906 0.089844 0.48438-0.26562 0.77344-0.62891 1.0039-0.29297 0.18359-0.60938 0.34766-0.96484 0.50391-1.1836 0.52734-2.4062 0.98047-3.6719 1.3594-1.9102 0.57031-3.8555 1.0273-5.8242 1.3672-0.26562 0.046875-0.42188 0.070312-0.46875 0.082031-0.1875 0.035156-0.34375 0.0625-0.46875 0.078125-0.23438 0.027344-0.45703 0.0625-0.66016 0.10547-0.34375 0.070312-0.69922 0.078125-1.0352 0.14453-0.47656 0.097656-0.95312 0.10938-1.4766 0.1875-0.30469 0.050781-0.64453 0.082031-1.0156 0.10547-0.10156 0.003906-0.30078 0.03125-0.60156 0.082031-0.19531 0.03125-0.39062 0.046875-0.60547 0.058594-0.46875 0.007812-0.89062 0.039062-1.2656 0.09375-0.37109 0.050781-0.71875 0.078125-1.043 0.078125-0.44141 0.003906-1.0547 0.035156-1.8516 0.097656-0.53125 0.042969-0.97656 0.066406-1.3359 0.066406-2.4922 0.023438-4.8672 0.023438-7.1172 0-0.35547-0.003906-0.79688-0.023437-1.3281-0.070312-0.76562-0.0625-1.3828-0.09375-1.8438-0.09375-0.32031 0-0.65234-0.023438-1.0117-0.0625-0.48438-0.0625-0.92578-0.09375-1.3398-0.10547-0.28906-0.003906-0.58203-0.03125-0.87891-0.074219-0.375-0.054687-0.69922-0.085937-0.95703-0.09375-0.55469-0.007812-1.1016-0.14062-1.6562-0.17188-0.47656-0.023437-0.94922-0.13281-1.4219-0.16406-0.48438-0.03125-0.94531-0.15234-1.4297-0.18359-0.14453-0.003906-0.3125-0.03125-0.48438-0.066406-0.19531-0.042969-0.35938-0.070313-0.48828-0.078125-0.36328-0.027344-0.74609-0.12109-1.1367-0.16797-0.17969-0.027344-0.33203-0.046875-0.44531-0.066406-0.24219-0.042969-0.9375-0.16797-2.1094-0.375-2.4922-0.44922-4.9609-0.99609-7.4062-1.6484-0.55469-0.14453-0.91406-0.25781-1.0859-0.33203-0.14062-0.0625-0.32031-0.19922-0.55078-0.40234-0.21484-0.19141-0.31641-0.44141-0.3125-0.73828 0 0 0.042969-1.0742 0.12109-3.2148 0.003906-0.10938 0.007812-0.19141 0.023437-0.25781 0.058594-0.28125 0.10547-0.55859 0.13672-0.83594 0.03125-0.25 0.0625-0.45312 0.10547-0.60938 0.023437-0.11328 0.050781-0.25 0.066406-0.41016 0.003906-0.074219 0.03125-0.20703 0.074219-0.40625 0.125-0.57812 0.20312-0.94141 0.24219-1.0977 0.39062-1.6211 1.1328-3.125 2.2734-4.3672 1.707-1.8516 3.7852-3.1914 6.2266-4.0156 0.94922-0.31641 1.8672-0.60156 2.7578-0.85938 0.36328-0.10938 0.82031-0.24219 1.3594-0.41016 1.9766-0.60938 3.8008-1.3594 5.4844-2.4336 0.85938-0.54688 1.625-1.1719 2.2969-1.8828 0.98828-1.043 1.582-2.3047 1.9609-3.7344 0.042969-0.14844 0.078125-0.34375 0.12109-0.59375 0.066406-0.39844 0.14453-0.74219 0.16797-1.2031 0.007812-0.23047 0.023437-0.43359 0.046875-0.60547 0.0625-0.57422 0.097656-1.0352 0.10938-1.3945 0.003906-0.27734 0.007812-0.75781 0.003906-1.4453 0-0.52344-0.011719-0.91406-0.03125-1.1758-0.03125-0.40625-0.0625-0.80078-0.09375-1.1758-0.003906-0.0625-0.035156-0.10547-0.097656-0.12109-1.918-0.51953-3.7266-1.2969-5.418-2.332-3.3438-2.0391-6.1094-4.9023-8.0781-8.2773-0.027344-0.046875-0.0625-0.050781-0.10547-0.015625-0.87891 0.89453-1.9453 1.3633-3.1953 1.4023-0.52734 0.015625-1.0156-0.023438-1.4766-0.10547-0.30078-0.058594-0.60156-0.15234-0.89844-0.28125-0.070313-0.027344-0.10156-0.003906-0.09375 0.066406 0.007812 0.42188 0.015625 0.92969 0.007812 1.5234-0.003906 0.34375-0.039062 0.67578-0.10938 0.99219-0.35938 1.5742-1.0078 2.9648-1.9609 4.1719-1.0938 1.3984-2.4062 2.5703-3.9375 3.5273-0.9375 0.58984-1.9609 1.1055-3.0469 1.5469-0.9375 0.37891-1.9961 0.70312-3.1719 0.96484-0.33984 0.070312-0.57422 0.11719-0.71484 0.13281-0.34375 0.042969-0.62109 0.12109-0.95703 0.14844-0.35156 0.023437-0.66406 0.054687-0.94531 0.097656-0.32812 0.046875-0.64062 0.074219-0.9375 0.078125-0.53906 0.003906-1.5195 0.0625-2.3477 0.015625-0.16797-0.011719-0.32812-0.058594-0.48438-0.14062-0.15234-0.082031-0.25391-0.20312-0.3125-0.36328-0.21875-0.58984 0.23438-0.96875 0.67188-1.3438 1.6445-1.3867 2.8633-3.2734 3.6133-5.2812 0.40625-1.0938 0.70312-2.1719 0.88281-3.2422 0.082031-0.50391 0.13281-0.78516 0.14453-0.83594 0.046875-0.26172 0.082031-0.54688 0.10547-0.85547 0.019531-0.26953 0.050781-0.57422 0.097656-0.90625 0.042969-0.30078 0.066406-0.70703 0.066406-1.2227v-1.0586c0-1.4648 0.015625-2.4883-0.10156-3.5898-0.03125-0.29688-0.054688-0.55078-0.0625-0.76953-0.007813-0.15625-0.015625-0.41016-0.023438-0.77734-0.003906-0.12891-0.035156-0.375-0.085937-0.73438-0.042969-0.28516-0.0625-0.53516-0.070313-0.73828-0.003906-0.40625-0.035156-0.79688-0.09375-1.1719-0.046875-0.34375-0.078125-0.67188-0.085937-0.98047-0.011719-0.32031-0.039063-0.625-0.085938-0.91406-0.046875-0.29297-0.070312-0.58984-0.078125-0.89062-0.003906-0.28906-0.035156-0.66406-0.09375-1.1328-0.046875-0.40625-0.070312-0.73828-0.070312-0.98438-0.007813-0.55469-0.042969-1.2383-0.10547-2.0547-0.035156-0.44531-0.050781-0.88672-0.058594-1.3359v-0.98828c0-0.30078 0.015625-0.62891 0.042969-0.98438 0.066406-0.875 0.10547-1.5469 0.11328-2.0117 0.011719-0.27344 0.039063-0.57031 0.078125-0.89062 0.058594-0.40625 0.089844-0.70312 0.09375-0.88281 0.007813-0.19531 0.03125-0.41797 0.089844-0.66797 0.011719-0.042969 0.042969-0.26562 0.09375-0.67188 0.10547-0.80859 0.33984-1.9062 0.70703-3.2852 0.46094-1.6953 1.0156-3.3242 1.6797-4.9023 0.33203-0.78516 0.66406-1.4883 1-2.0938 0.45703-0.82422 0.80469-1.4648 1.0508-1.9258 0.26172-0.48438 0.48438-0.87109 0.67188-1.1523 0.73828-1.125 1.5938-2.0977 2.5742-2.9258 1.6641-1.4141 3.5703-2.3359 5.7227-2.7773 0.28125-0.058594 0.64062-0.10547 1.0664-0.14062 0.55859-0.046875 0.91797-0.074219 1.0742-0.089844 0.10547-0.003906 0.19922-0.007812 0.29297 0 0.21094 0.015625 0.5625 0.046875 1.0391 0.089844 0.40625 0.03125 0.75 0.078125 1.043 0.13672 1.875 0.36719 3.5508 1.1445 5.0312 2.332 0.078125 0.0625 0.17578 0.066406 0.28516 0.019531 0.74609-0.33203 1.4219-0.58203 2.0391-0.75 0.50391-0.13281 1.0625-0.26562 1.6641-0.39844 0.30859-0.070313 0.54688-0.10938 0.71875-0.125 0.16406-0.023438 0.32422-0.046875 0.48438-0.085938 0.10938-0.023437 0.27344-0.046875 0.48438-0.0625 0.26562-0.023437 0.54688-0.054687 0.84375-0.09375 0.35156-0.050781 0.625-0.078125 0.84375-0.082031 1.168-0.035156 2.2422-0.035156 3.2266 0 0.25781 0.003906 0.53516 0.035156 0.8125 0.082031 0.47656 0.085938 0.74219 0.13281 0.80469 0.14062 1.2422 0.21484 2.4023 0.625 3.5 1.2344 0.03125 0.023438 0.074219 0.027344 0.12109 0.023438 0.035156-0.007813 0.074219-0.015625 0.12109-0.039063 0.64844-0.28906 1.1758-0.5 1.582-0.61328 0.41016-0.12109 0.98828-0.25 1.7305-0.39062 0.22656-0.042969 0.54688-0.082031 0.96094-0.125 0.44531-0.046875 0.875-0.13672 1.293-0.14062h1.4062c0.61328 0 1.3164 0.13672 1.9258 0.17188 0.35156 0.019531 0.63281 0.10547 1.0312 0.17578 1.0234 0.19922 2.0234 0.49609 3.0117 0.89062 0.63672 0.25781 1.2695 0.54297 1.9023 0.85547 0.066406 0.03125 0.13281 0.019531 0.20312-0.027344 1.375-0.95312 2.8633-1.5977 4.457-1.9414 0.31641-0.074219 0.62109-0.12109 0.91797-0.15234 0.42969-0.046875 0.80078-0.125 1.2188-0.12891 0.64453-0.015625 1.0391-0.011719 1.1914 0.015625 0.26953 0.035156 0.54688 0.074219 0.83984 0.10938 0.33203 0.042969 0.60938 0.082031 0.83594 0.12891 2.4609 0.51172 4.5898 1.6836 6.3906 3.5117 0.27734 0.28125 0.50781 0.51562 0.69922 0.69922 0.042969 0.039062 0.125 0.14844 0.25 0.32031 0.76953 1.0703 1.3867 2.1719 1.8398 3.3086 0.14062 0.33984 0.28516 0.76562 0.44531 1.2695 0.11719 0.35938 0.39844 1.2617 0.85156 2.7109 0.37891 1.207 0.66016 2.3359 0.84766 3.3828 0.066406 0.375 0.10547 0.57031 0.10547 0.58594 0.082031 0.35156 0.085937 0.75781 0.17578 1.1016 0.042969 0.18359 0.066406 0.35547 0.066406 0.51562 0.007813 0.23047 0.039063 0.54297 0.09375 0.92969 0.042969 0.30469 0.074219 0.61328 0.085938 0.92578 0.023437 0.73828 0.066406 1.4531 0.125 2.1445 0.046875 0.57812 0.03125 1.0586 0.035156 1.8047 0.003906 0.32812-0.011719 0.69141-0.042969 1.0859-0.066406 0.80859-0.10938 1.6016-0.125 2.375-0.003906 0.30859-0.03125 0.64062-0.078125 1.0078-0.054687 0.45312-0.082031 0.82812-0.085937 1.1133 0 0.25391-0.027344 0.54688-0.078125 0.875-0.046875 0.3125-0.078125 0.64453-0.089844 0.99609-0.011719 0.30078-0.042969 0.60156-0.082031 0.89844-0.058594 0.35547-0.089844 0.71484-0.09375 1.0859 0 0.26953-0.027344 0.54688-0.074219 0.83594-0.058594 0.35156-0.089844 0.78906-0.097656 1.3086-0.007813 0.3125-0.027344 0.60547-0.058594 0.88672-0.058594 0.46875-0.089844 0.91016-0.097656 1.332-0.023438 1.4336-0.023438 2.7344 0 3.918 0.003906 0.33203 0.035156 0.67188 0.085937 1.0078 0.039063 0.21875 0.0625 0.48438 0.078125 0.8125 0.011719 0.15234 0.039063 0.33594 0.078125 0.54297 0.042969 0.21875 0.074219 0.39453 0.089844 0.54297 0.050781 0.41406 0.19922 1.0977 0.44141 2.0508 0.42188 1.6289 1.0938 3.1289 2.0078 4.4961 0.45703 0.67969 0.98438 1.3047 1.5703 1.8789 0.11719 0.11328 0.39844 0.36328 0.82812 0.75 0.17188 0.15234 0.36719 0.35547 0.41797 0.57422 0.10938 0.48438-0.15625 0.875-0.62891 0.97656-0.042969 0.011719-0.25 0.027344-0.62109 0.046875-0.16797 0.011719-0.375 0.011719-0.625 0-0.35547-0.007812-0.81641-0.023437-1.375-0.035156-0.25391-0.003906-0.51562-0.027344-0.78125-0.0625-0.37891-0.046875-0.64062-0.078125-0.78516-0.089844-0.26562-0.015625-0.52734-0.050781-0.77734-0.097656-0.10938-0.019531-0.37109-0.0625-0.77734-0.125-0.4375-0.0625-1.1602-0.25-2.1641-0.56641-1.9336-0.60547-3.6992-1.4805-5.3047-2.6211-0.875-0.625-1.7227-1.3945-2.5469-2.3164-1.207-1.3594-2.0195-2.9141-2.4297-4.6523-0.09375-0.39062-0.14062-0.75-0.14062-1.0781 0-0.44141 0-0.80859 0.003906-1.0898 0-0.035156-0.019531-0.078125-0.0625-0.11328-0.015625-0.015625-0.03125-0.003906-0.046875 0.027344zm-5.8242-0.011719c0.015625 0.046875 0.054688 0.078125 0.10938 0.089844 0.49219 0.10938 0.82812 0.17188 1.0156 0.17969 0.46484 0.027344 0.89062-0.070312 1.2812-0.125 0.79297-0.10938 1.5547-0.48828 2.2148-0.96875 0.82812-0.60156 1.543-1.2969 2.1406-2.0664 0.76562-0.98828 1.3125-2.1523 1.6523-3.4883 0.11328-0.45312 0.19531-0.89062 0.24219-1.3125 0.015625-0.14062 0.054688-0.375 0.10547-0.70312 0.035156-0.25 0.0625-0.49219 0.066406-0.70312 0.007813-0.27734 0.011719-0.82031 0.011719-1.6328-0.003906-0.34375-0.019531-0.61719-0.058594-0.83594-0.054687-0.33594-0.11328-0.60938-0.17188-0.82422-0.14062-0.55859-0.37891-1.0742-0.71094-1.5312-0.63672-0.88672-1.5-1.4219-2.5898-1.5977-0.73438-0.125-1.5352 0.14844-2.1367 0.57031-0.42969 0.30469-0.76562 0.58984-0.98828 0.84375-0.34766 0.40625-0.61328 1.1797-1.2773 1.0859-0.1875-0.027344-0.37891-0.13672-0.58594-0.32812-0.23438-0.22656-0.42969-0.47656-0.57422-0.75-0.23828-0.46094-0.40625-0.8125-0.51172-1.0625-0.55469-1.3672-0.89453-2.1719-1.0078-2.4219-0.125-0.28906-0.34375-0.69531-0.64844-1.2266-0.019531-0.035156-0.046875-0.09375-0.082031-0.17188-0.046875-0.10938-0.078125-0.16406-0.09375-0.17578-0.015625-0.015625-0.03125-0.015625-0.046875 0-0.074219 0.074219-0.12891 0.25-0.18359 0.32422-0.50781 0.72656-1.3164 0.94141-2.1406 1.0977-0.25391 0.046875-0.53906 0.078125-0.85156 0.082031-0.23438 0.011719-0.65625 0.011719-1.2656 0.011719-0.41406 0-0.83594-0.03125-1.2617-0.10547-0.80078-0.125-1.2969-0.21094-1.4805-0.25-0.85938-0.19141-1.75-0.51953-2.4609-1.0391-0.49609-0.35938-0.8125-0.95312-0.59375-1.5391 0.11719-0.30469 0.32031-0.54688 0.61719-0.73438 0.21094-0.125 0.37109-0.22656 0.48047-0.30469 0.19922-0.14062 0.35938-0.24219 0.48828-0.29297 0.44531-0.18359 0.83594-0.23828 1.375-0.33203 0.26172-0.046875 0.48438-0.070313 0.68359-0.074219 0.62891-0.015625 1.2227-0.011719 1.7812 0.015625 0.33984 0.011719 0.69141 0.10938 0.98047 0.15234 0.039062 0.003906 0.082031 0 0.125-0.023438 0.019531-0.007812 0.019531-0.015625 0-0.019531-0.10156-0.03125-0.20312-0.074219-0.3125-0.125-0.15625-0.066406-0.25781-0.11328-0.29688-0.12891-0.70312-0.27734-1.4062-0.53125-2.1172-0.77734-0.98438-0.34375-1.7188-0.60938-2.6602-0.9375-0.37891-0.13672-1.0625-0.41797-2.043-0.84375-1.0352-0.45312-2.0625-1.0195-3.0781-1.6992-0.1875-0.125-0.44141-0.34375-0.76562-0.64844-0.050781-0.046875-0.082031-0.13281-0.14062-0.17969-0.019531-0.007812-0.039062-0.007812-0.0625 0.007813-1.5234 1.2227-3.2109 2.1758-5.0625 2.8516-0.22266 0.085938-0.64453 0.23047-1.2578 0.4375-0.90234 0.29688-1.5312 0.49219-1.8906 0.5625-1.668 0.35156-2.7656 0.58984-3.3047 0.71484-1.4922 0.35938-2.8281 1.082-4.0039 2.168-1.1094 1.0312-2 2.1484-2.6719 3.3594-0.41016 0.72656-0.80078 1.6328-1.1719 2.7188-0.125 0.36328-0.1875 0.67578-0.32812 1.0938-0.12109 0.34766-0.30859 0.42188-0.60547 0.57031-0.17969 0.089844-0.23438 0.27734-0.42969 0.32812-0.33984 0.09375-0.58984-0.007812-0.75781-0.30078-0.14062-0.24609-0.28516-0.44922-0.4375-0.62109-0.42188-0.46875-0.89453-0.85938-1.4219-1.1797-0.36719-0.22656-0.76953-0.39062-1.2031-0.49609-0.45312-0.11328-0.875-0.13672-1.2695-0.074219-1.4023 0.23047-2.293 1.2305-2.6523 2.5469-0.046875 0.16406-0.097656 0.375-0.16016 0.64844-0.035156 0.14844-0.074219 0.36719-0.10547 0.65625-0.039062 0.36719-0.070312 0.60938-0.085937 0.72266-0.058594 0.40234-0.039063 0.90234 0.054687 1.4961 0.011719 0.054687 0.015625 0.14062 0.023438 0.24219 0.015625 0.24219 0.023437 0.4375 0.066406 0.625 0.10547 0.47656 0.16797 0.91406 0.30859 1.3906 0.35156 1.2461 0.87891 2.4492 1.5391 3.5586 0.30859 0.51562 0.66797 1.0156 1.0742 1.4844 0.51172 0.59375 1.1133 1.1211 1.8164 1.5742 0.76562 0.49219 1.5859 0.78516 2.4375 0.86328 0.34375 0.03125 0.77734-0.015625 1.2969-0.14453 0.19922-0.054688 0.40625-0.14062 0.62109-0.26562 0.27734-0.16797 0.46484-0.29688 0.5625-0.38672 0.17188-0.16016 0.35938-0.32422 0.5625-0.48828 0.019531-0.023438 0.027344-0.042969 0.015625-0.074219-0.53125-1.0586-0.97266-2.1094-1.332-3.1562-0.15234-0.43359-0.26562-0.75-0.039063-1.1133 0.078125-0.12109 0.20312-0.20312 0.37109-0.24609 0.43359-0.10547 0.76562 0.17188 0.89453 0.56641 0.76172 2.3242 1.8555 4.4766 3.2891 6.4492 2.1172 2.9219 4.8633 5.2852 8.1094 6.8594 1.7227 0.83984 3.5508 1.4023 5.4766 1.6992 0.16797 0.023437 0.28125 0.039062 0.35156 0.046875 0.0625 0 0.17578 0.007812 0.34766 0.019531 0.082031 0.003906 0.25391 0.027344 0.52734 0.058594 0.75781 0.085937 1.5234 0.097656 2.2812 0.023437 0.42578-0.039062 0.76562-0.078125 1.0156-0.097656 0.25781-0.019531 0.4375-0.046875 0.53516-0.066406 0.17188-0.042969 0.34766-0.074219 0.52734-0.10156 0.17188-0.019531 0.42969-0.078125 0.78516-0.16016 3.0898-0.76172 5.7383-2.2656 7.9492-4.5156 0.82812-0.84375 1.5469-1.7383 2.1602-2.6875 1.1914-1.8555 2.0469-3.8555 2.5664-6 0.042969-0.1875 0.13672-0.62109 0.27734-1.293 0.097656-0.46875 0.59766-0.75 1.0312-0.48828 0.30078 0.1875 0.37109 0.47266 0.3125 0.83984-0.0625 0.35938-0.09375 0.54688-0.097656 0.56641-0.10156 0.48047-0.24219 1.0469-0.42188 1.7031-0.085938 0.29688-0.18359 0.62109-0.30469 0.95703-0.11719 0.33594-0.23438 0.64844-0.34375 0.94531-0.015625 0.039062-0.015625 0.085937 0 0.12891zm-12.781 11.297c0-0.058594-0.03125-0.078125-0.085937-0.066406-0.43359 0.10156-0.89844 0.19141-1.3828 0.26562-0.35156 0.054687-0.75 0.097656-1.1914 0.12891-0.60547 0.046875-1.0039 0.066406-1.2031 0.066406-0.5 0.007813-0.79297 0-0.875-0.003906-0.6875-0.046875-1.0664-0.066406-1.1367-0.066406-0.35938-0.007813-0.67969-0.042969-0.95703-0.10156-0.09375-0.019531-0.41016-0.066406-0.95703-0.14453-0.039063-0.003906-0.054688 0.011719-0.046875 0.046875 0.03125 0.25391 0.082031 0.55859 0.085937 0.83984 0.015625 1.5195 0.015625 2.9102 0 4.1758-0.003906 0.15234-0.015625 0.30078-0.039062 0.45312-0.03125 0.19141-0.054688 0.34375-0.070313 0.45312-0.007812 0.050781 0.015625 0.089844 0.070313 0.10547 0.56641 0.17969 1.1094 0.33203 1.6328 0.44531 0.24219 0.054688 0.42188 0.089844 0.55859 0.10156 0.21875 0.019531 0.40234 0.046875 0.55859 0.070312 0.58594 0.11719 1.2383 0.11719 1.8516 0.089844 0.40625-0.015625 0.76562-0.10547 1.1562-0.15234 0.14844-0.015625 0.32812-0.054687 0.55859-0.11328 0.28125-0.078125 0.46484-0.125 0.54688-0.15625 0.44141-0.13672 0.875-0.32812 1.293-0.57812 0.054687-0.035156 0.082031-0.09375 0.066406-0.17188-0.0625-0.34375-0.09375-0.67578-0.09375-0.99609-0.003906-0.32812-0.0625-0.75-0.10547-1.0234-0.035156-0.23047-0.054687-0.48438-0.054687-0.76562-0.007813-0.35938-0.054688-0.90234-0.13672-1.6367-0.050781-0.42188-0.035156-0.90234-0.042969-1.2656z"/>
 <path d="m35.41 26.863c0.27344-0.33203 0.60156-0.58594 0.98438-0.76953 0.75-0.34766 1.5156-0.59375 2.3086-0.72266 0.066406-0.011719 0.35547-0.058594 0.86328-0.13672 0.27344-0.042969 0.55859-0.0625 0.87109-0.066406 0.90234-0.011719 1.4531-0.011719 1.6523 0 0.21094 0.007812 0.61328 0.070312 1.1953 0.19141 0.4375 0.082031 0.83594 0.21875 1.1875 0.40234 0.36719 0.1875 0.66406 0.4375 0.89844 0.75391 0.41406 0.5625 0.3125 1.3711-0.15234 1.875-0.34766 0.37891-0.76562 0.68359-1.2461 0.90234-0.64844 0.29688-1.3281 0.51953-2.0352 0.66016-0.13672 0.027344-0.37891 0.066406-0.75 0.12891-0.26172 0.042969-0.51172 0.074219-0.75 0.085938-0.70703 0.03125-1.4375 0.023437-2.1875-0.007813-0.375-0.015625-0.85938-0.11328-1.1445-0.17969-0.88672-0.21094-1.9141-0.60547-2.2109-1.4766-0.10938-0.32031-0.10938-0.61719 0.011719-0.89453 0.097656-0.25 0.34766-0.5625 0.50391-0.74609z"/>
 <path d="m62.02 36.984c-0.046875-0.003906-0.066406 0.015625-0.054687 0.0625 0.10156 0.84766-0.085938 1.5938-0.57031 2.2305-0.26562 0.35938-0.60156 0.63281-1.0078 0.84375-0.45312 0.22656-0.94531 0.33203-1.4688 0.31641-0.26172-0.011719-0.55859-0.078125-0.89062-0.20312-1.4062-0.52734-2.2109-2.0664-1.7773-3.5156 0.28125-0.9375 0.86328-1.5898 1.7539-1.9492 0.20312-0.082031 0.49219-0.14844 0.85156-0.20312 0.28516-0.039062 0.55469-0.023437 0.82031 0.046875 0.59375 0.17188 1.0547 0.42969 1.5469 0.82812 0.074219 0.0625 0.26172 0.15234 0.37109 0.18359 0.53516 0.16016 1.0586 0.097656 1.5625-0.18359 0.33203-0.1875 0.89453-0.15625 1.0156 0.30469 0.089844 0.36328-0.027344 0.64453-0.35938 0.84375-0.53516 0.31641-1.1367 0.45312-1.793 0.39453z"/>
 <path d="m38.027 38.152c-0.011719-0.042969-0.03125-0.054688-0.074219-0.039063-0.59375 0.30859-1.2305 0.35938-1.9062 0.16797-0.050781-0.015625-0.14062-0.058594-0.26562-0.125-0.35938-0.20312-0.48047-0.55859-0.27734-0.93359 0.21875-0.41016 0.71875-0.27344 1.1094-0.16406 0.042969 0.007812 0.14844 0.015625 0.3125 0.007812 0.3125-0.003906 0.68359-0.22656 0.90625-0.39844 0.26172-0.19922 0.46484-0.66406 0.64062-0.89844 0.33594-0.4375 0.74609-0.74219 1.2344-0.92578 0.10156-0.035156 0.26562-0.082031 0.50781-0.14453 0.1875-0.054688 0.35938-0.074219 0.51562-0.0625 0.28516 0.015625 0.59766 0.082031 0.92969 0.21094 0.625 0.23438 1.1016 0.64062 1.4219 1.2109 0.47656 0.83594 0.50781 1.6953 0.10156 2.5781-0.47656 1.0078-1.5391 1.6328-2.6641 1.5664-0.64453-0.035156-1.2188-0.27734-1.707-0.71875-0.41797-0.37109-0.67578-0.81641-0.78516-1.332z"/>
 <path d="m72.223 37.922c-0.015625-0.046875-0.039062-0.058594-0.078125-0.027344-0.25 0.21875-0.48438 0.45312-0.69531 0.69922-0.24609 0.28125-0.35156 0.48828-0.53906 0.84766-0.11719 0.23047-0.28125 0.36719-0.49219 0.40234-0.57422 0.10938-0.82812-0.44141-0.66406-0.91797 0.070313-0.19141 0.14062-0.34766 0.21484-0.47266 0.5625-0.94141 1.3789-1.6758 2.3086-2.293 0.41406-0.27344 0.92578-0.46875 1.5312-0.57031 0.3125-0.058594 0.5625 0.003906 0.75781 0.17578 0.47656 0.43359 0.18359 1.0586-0.38281 1.1602-0.007813 0-0.21875 0.03125-0.64062 0.09375-0.10547 0.015625-0.17188 0.058594-0.20312 0.125-0.011719 0.023438-0.011719 0.046875 0 0.070313 0.19531 0.58594 0.3125 1.0508 0.34375 1.3984 0.007812 0.13281 0.007812 0.45312 0.003906 0.97656-0.003906 0.33203-0.10938 0.73828-0.16797 0.97656-0.20703 0.82031-0.57031 1.5547-1.0859 2.2109-0.1875 0.23828-0.42969 0.34375-0.71484 0.32812-0.23047-0.015625-0.39453-0.12109-0.49609-0.32422-0.25781-0.52734 0.1875-0.85547 0.44922-1.2656 0.33203-0.53125 0.55859-1.1133 0.67188-1.7539 0.066406-0.35156 0.082031-0.65625 0.058594-0.92188-0.039063-0.3125-0.09375-0.62109-0.17969-0.91797z"/>
 <path d="m25.246 38.121c-0.007813-0.007813-0.015625-0.007813-0.027344-0.007813-0.29297 0.023438-0.52734 0.046875-0.71484 0.074219-0.30078 0.046875-0.59766 0.27734-0.82812 0.38672-0.42188 0.20312-0.92578 0.050781-0.99219-0.46094-0.03125-0.23828 0.046875-0.44141 0.23828-0.60938 0.32812-0.28906 0.70703-0.48438 1.1367-0.58203 0.97656-0.23047 1.9297-0.15625 2.8516 0.20703 0.57422 0.23438 1.0898 0.49219 1.5781 0.78125 0.21875 0.13672 0.41406 0.26172 0.50781 0.49609 0.12891 0.32422-0.074219 0.70703-0.41406 0.78125-0.24219 0.058594-0.44141 0.011719-0.66016-0.12109-0.42188-0.24219-0.83984-0.44531-1.25-0.61719-0.066406-0.03125-0.10938-0.011719-0.12891 0.0625-0.078125 0.24219-0.14062 0.55469-0.19922 0.94141-0.09375 0.66797-0.058594 1.2969 0.11328 1.8906 0.12109 0.40234 0.33984 0.73828 0.66406 1.0195 0.070312 0.0625 0.25 0.21094 0.53516 0.42969 0.29297 0.22656 0.40625 0.67578 0.15625 0.97656-0.21484 0.26172-0.60938 0.23438-0.89062 0.10938-0.21484-0.097656-0.37109-0.21875-0.57812-0.39453-0.59766-0.5-0.98438-1.0898-1.168-1.7656-0.09375-0.33984-0.16016-0.73438-0.20312-1.1875-0.019531-0.23438-0.007812-0.51953 0.039063-0.85938 0.085937-0.62109 0.10938-0.95703 0.28125-1.4258 0.019531-0.0625 0.003906-0.10547-0.046875-0.125z"/>
 <path d="m49.707 44.578c0 0.0625 0.027344 0.10547 0.078125 0.125 0.37109 0.16016 0.78125 0.34766 1.2266 0.55859 0.32812 0.15625 0.45703 0.41406 0.39453 0.78125-0.042969 0.24219-0.18359 0.39453-0.42188 0.45703-0.37109 0.09375-0.58984-0.015625-0.97266-0.1875-0.35547-0.15625-0.69922-0.32812-1.0312-0.51953-0.34375-0.1875-0.65625-0.49609-0.69531-0.89844-0.007812-0.125 0.023438-0.31641 0.09375-0.57031 0.10156-0.33984 0.28125-0.88672 0.40234-1.3203 0.21484-0.78906 0.4375-1.5703 0.6875-2.3516 0.03125-0.10547 0.078125-0.21484 0.13672-0.32422 0.16016-0.28516 0.5-0.38672 0.79688-0.26172 0.28516 0.12109 0.36328 0.4375 0.33594 0.71875-0.019531 0.24609-0.15625 0.58594-0.20703 0.76172-0.22266 0.82812-0.44922 1.6562-0.67188 2.4844-0.003906 0.027344-0.035156 0.11328-0.089844 0.26953-0.039062 0.10938-0.0625 0.20312-0.0625 0.27734z"/>
 <path d="m55.91 48.98c0.027344-0.015625 0.09375-0.070313 0.20312-0.14844 0.37109-0.25781 0.91406-0.25781 1.125 0.19922 0.19922 0.41797-0.050781 0.76562-0.37891 1.0117-0.79688 0.59766-1.6055 1.082-2.4258 1.4531-0.875 0.39844-1.7578 0.65625-2.6484 0.77344-0.64844 0.089844-1.3359 0.10547-2.0508 0.046875-0.44922-0.035156-0.88672-0.10938-1.3164-0.21875-1.2617-0.32812-2.4336-0.91016-3.5-1.7383-0.19922-0.15625-0.43359-0.35547-0.48438-0.59375-0.046875-0.19922-0.015625-0.38672 0.085937-0.55859 0.16406-0.26953 0.54297-0.32812 0.82422-0.23438 0.078125 0.027344 0.18359 0.089844 0.32422 0.1875 0.42188 0.29688 0.67969 0.48438 0.78516 0.55469 0.78125 0.5 1.6211 0.85156 2.5156 1.0664 0.28125 0.066406 0.64062 0.09375 0.94922 0.15234 0.11719 0.023437 0.38281 0.035156 0.78125 0.035156 0.21094 0 0.53516-0.03125 0.96094-0.10547 0.37109-0.054687 0.6875-0.125 0.94531-0.20312 1.2031-0.35938 2.3047-0.92188 3.3047-1.6797z"/>
<text x="0.0" y="117.5" font-size="5.0" font-weight="bold" font-family="Arbeit Regular, Helvetica, Arial-Unicode, Arial, Sans-serif" fill="#000000">Created by Karsono</text><text x="0.0" y="122.5" font-size="5.0" font-weight="bold" font-family="Arbeit Regular, Helvetica, Arial-Unicode, Arial, Sans-serif" fill="#000000">from Noun Project</text></svg>